<?xml version="1.0" encoding="utf-8"?>
<!-- Generator: Adobe Illustrator 22.0.0, SVG Export Plug-In . SVG Version: 6.00 Build 0)  -->
<svg version="1.1" id="图层_1" xmlns="http://www.w3.org/2000/svg" xmlns:xlink="http://www.w3.org/1999/xlink" x="0px" y="0px"
	 viewBox="0 0 200 200" style="enable-background:new 0 0 200 200;" xml:space="preserve">
<style type="text/css">
	.st0{fill:#B2B5BE;}
</style>
<path class="st0" d="M0,171.1C0,187.1,12.9,200,28.9,200c0,0,0,0,0,0h46.5c4,0,7.3-3.2,7.4-7.2c0,0,0-0.1,0-0.1v-0.4
	c0-4-3.3-7.3-7.3-7.3H28.9c-7.6,0-13.8-6.2-13.8-13.8v-46.5c0-4-3.3-7.3-7.3-7.3H7.3c-4,0-7.3,3.3-7.3,7.3c0,0,0,0,0,0V171.1z
	 M0,28.9C0,12.9,12.9,0,28.9,0c0,0,0,0,0,0h46.5c4,0,7.3,3.2,7.4,7.2c0,0,0,0.1,0,0.1v0.4c0,4-3.3,7.3-7.3,7.3c0,0,0,0,0,0H28.9
	c-7.6,0-13.8,6.2-13.8,13.8c0,0,0,0,0,0v46.5c0,4-3.2,7.3-7.3,7.4c0,0,0,0,0,0H7.3c-4,0-7.3-3.3-7.3-7.3c0,0,0,0,0-0.1V28.9z
	 M200,28.9C200,12.9,187.1,0,171.2,0c0,0,0,0,0,0h-46.5c-4,0-7.3,3.3-7.3,7.3v0.4c0,4,3.3,7.3,7.3,7.3h46.5
	c7.6,0,13.8,6.2,13.8,13.8v0v46.5c0,4,3.2,7.3,7.3,7.4c0,0,0,0,0,0h0.4c4,0,7.3-3.3,7.3-7.3L200,28.9z M200,171.1
	c0,15.9-12.9,28.9-28.9,28.9h-46.5c-4,0-7.3-3.3-7.3-7.3c0,0,0,0,0,0v-0.4c0-4,3.3-7.3,7.3-7.3h46.5c7.6,0,13.8-6.2,13.8-13.8
	c0,0,0,0,0,0v-46.5c0-4,3.3-7.3,7.3-7.3h0.4c4,0,7.3,3.3,7.3,7.3L200,171.1z"/>
<path class="st0" d="M9.6,90.4h180.8c6.4,0,9.6,3.2,9.6,9.6v0c0,6.4-3.2,9.6-9.6,9.6H9.6c-6.4,0-9.6-3.2-9.6-9.6v0
	C0,93.6,3.2,90.4,9.6,90.4z"/>
</svg>
